{
	"asset":{
		"generator":"Khronos glTF Blender I/O v5.0.21",
		"version":"2.0"
	},
	"scene":0,
	"scenes":[
		{
			"name":"Scene",
			"nodes":[
				0,
				1,
				2,
				3,
				4
			]
		}
	],
	"nodes":[
		{
			"mesh":0,
			"name":"leg",
			"scale":[
				0.8551877737045288,
				1,
				0.8551877737045288
			],
			"translation":[
				0,
				0.5213072896003723,
				-0.9656405448913574
			]
		},
		{
			"mesh":1,
			"name":"arm",
			"rotation":[
				0.7071068286895752,
				0,
				0,
				0.7071068286895752
			],
			"translation":[
				0,
				1.7327733039855957,
				-1.5263091325759888
			]
		},
		{
			"mesh":2,
			"name":"Cylinder"
		},
		{
			"mesh":3,
			"name":"arm.001",
			"rotation":[
				-0.7071068286895752,
				0,
				0,
				0.7071068286895752
			],
			"translation":[
				0,
				1.7327733039855957,
				1.5238209962844849
			]
		},
		{
			"mesh":4,
			"name":"leg.001",
			"scale":[
				0.8551877737045288,
				1,
				0.8551877737045288
			],
			"translation":[
				0,
				0.5213072896003723,
				1.0301871299743652
			]
		}
	],
	"materials":[
		{
			"doubleSided":true,
			"name":"arms-legsmat",
			"pbrMetallicRoughness":{
				"baseColorFactor":[
					0.8000156879425049,
					0.36078229546546936,
					0.17420557141304016,
					1
				],
				"metallicFactor":0,
				"roughnessFactor":0.5
			}
		},
		{
			"doubleSided":true,
			"name":"body",
			"pbrMetallicRoughness":{
				"baseColorTexture":{
					"index":0
				},
				"metallicFactor":0,
				"roughnessFactor":0.5
			}
		}
	],
	"meshes":[
		{
			"name":"Cylinder",
			"primitives":[
				{
					"attributes":{
						"POSITION":0,
						"NORMAL":1,
						"TEXCOORD_0":2
					},
					"indices":3,
					"material":0
				}
			]
		},
		{
			"name":"Cylinder.002",
			"primitives":[
				{
					"attributes":{
						"POSITION":4,
						"NORMAL":5,
						"TEXCOORD_0":6
					},
					"indices":3,
					"material":0
				}
			]
		},
		{
			"name":"Cylinder.003",
			"primitives":[
				{
					"attributes":{
						"POSITION":7,
						"NORMAL":8,
						"TEXCOORD_0":9,
						"COLOR_0":10,
						"COLOR_1":11
					},
					"indices":12,
					"material":1
				}
			]
		},
		{
			"name":"Cylinder.005",
			"primitives":[
				{
					"attributes":{
						"POSITION":13,
						"NORMAL":14,
						"TEXCOORD_0":15
					},
					"indices":3,
					"material":0
				}
			]
		},
		{
			"name":"Cylinder.007",
			"primitives":[
				{
					"attributes":{
						"POSITION":16,
						"NORMAL":17,
						"TEXCOORD_0":18
					},
					"indices":3,
					"material":0
				}
			]
		}
	],
	"textures":[
		{
			"sampler":0,
			"source":0
		}
	],
	"images":[
		{
			"mimeType":"image/png",
			"name":"Untitled",
			"uri":"Untitled.png"
		}
	],
	"accessors":[
		{
			"bufferView":0,
			"componentType":5126,
			"count":149,
			"max":[
				0.5792494416236877,
				-0.025582075119018555,
				0.5792494416236877
			],
			"min":[
				-0.5792494416236877,
				-4.276305675506592,
				-0.5792494416236877
			],
			"type":"VEC3"
		},
		{
			"bufferView":1,
			"componentType":5126,
			"count":149,
			"type":"VEC3"
		},
		{
			"bufferView":2,
			"componentType":5126,
			"count":149,
			"type":"VEC2"
		},
		{
			"bufferView":3,
			"componentType":5123,
			"count":714,
			"type":"SCALAR"
		},
		{
			"bufferView":4,
			"componentType":5126,
			"count":149,
			"max":[
				0.271655410528183,
				-0.025582075119018555,
				0.271655410528183
			],
			"min":[
				-0.271655410528183,
				-3.1605420112609863,
				-0.271655410528183
			],
			"type":"VEC3"
		},
		{
			"bufferView":5,
			"componentType":5126,
			"count":149,
			"type":"VEC3"
		},
		{
			"bufferView":6,
			"componentType":5126,
			"count":149,
			"type":"VEC2"
		},
		{
			"bufferView":7,
			"componentType":5126,
			"count":1026,
			"max":[
				2.138807535171509,
				7.662376880645752,
				2.3414053916931152
			],
			"min":[
				-2.1194310188293457,
				-0.826286792755127,
				-2.3195760250091553
			],
			"type":"VEC3"
		},
		{
			"bufferView":8,
			"componentType":5126,
			"count":1026,
			"type":"VEC3"
		},
		{
			"bufferView":9,
			"componentType":5126,
			"count":1026,
			"type":"VEC2"
		},
		{
			"bufferView":10,
			"componentType":5121,
			"count":1026,
			"normalized":true,
			"type":"VEC4"
		},
		{
			"bufferView":11,
			"componentType":5123,
			"count":1026,
			"normalized":true,
			"type":"VEC4"
		},
		{
			"bufferView":12,
			"componentType":5123,
			"count":5184,
			"type":"SCALAR"
		},
		{
			"bufferView":13,
			"componentType":5126,
			"count":149,
			"max":[
				0.271655410528183,
				-0.025582075119018555,
				0.271655410528183
			],
			"min":[
				-0.271655410528183,
				-3.1605420112609863,
				-0.271655410528183
			],
			"type":"VEC3"
		},
		{
			"bufferView":14,
			"componentType":5126,
			"count":149,
			"type":"VEC3"
		},
		{
			"bufferView":15,
			"componentType":5126,
			"count":149,
			"type":"VEC2"
		},
		{
			"bufferView":16,
			"componentType":5126,
			"count":149,
			"max":[
				0.5792494416236877,
				-0.025582075119018555,
				0.5792494416236877
			],
			"min":[
				-0.5792494416236877,
				-4.276305675506592,
				-0.5792494416236877
			],
			"type":"VEC3"
		},
		{
			"bufferView":17,
			"componentType":5126,
			"count":149,
			"type":"VEC3"
		},
		{
			"bufferView":18,
			"componentType":5126,
			"count":149,
			"type":"VEC2"
		}
	],
	"bufferViews":[
		{
			"buffer":0,
			"byteLength":1788,
			"byteOffset":0,
			"target":34962
		},
		{
			"buffer":0,
			"byteLength":1788,
			"byteOffset":1788,
			"target":34962
		},
		{
			"buffer":0,
			"byteLength":1192,
			"byteOffset":3576,
			"target":34962
		},
		{
			"buffer":0,
			"byteLength":1428,
			"byteOffset":4768,
			"target":34963
		},
		{
			"buffer":0,
			"byteLength":1788,
			"byteOffset":6196,
			"target":34962
		},
		{
			"buffer":0,
			"byteLength":1788,
			"byteOffset":7984,
			"target":34962
		},
		{
			"buffer":0,
			"byteLength":1192,
			"byteOffset":9772,
			"target":34962
		},
		{
			"buffer":0,
			"byteLength":12312,
			"byteOffset":10964,
			"target":34962
		},
		{
			"buffer":0,
			"byteLength":12312,
			"byteOffset":23276,
			"target":34962
		},
		{
			"buffer":0,
			"byteLength":8208,
			"byteOffset":35588,
			"target":34962
		},
		{
			"buffer":0,
			"byteLength":4104,
			"byteOffset":43796,
			"target":34962
		},
		{
			"buffer":0,
			"byteLength":8208,
			"byteOffset":47900,
			"target":34962
		},
		{
			"buffer":0,
			"byteLength":10368,
			"byteOffset":56108,
			"target":34963
		},
		{
			"buffer":0,
			"byteLength":1788,
			"byteOffset":66476,
			"target":34962
		},
		{
			"buffer":0,
			"byteLength":1788,
			"byteOffset":68264,
			"target":34962
		},
		{
			"buffer":0,
			"byteLength":1192,
			"byteOffset":70052,
			"target":34962
		},
		{
			"buffer":0,
			"byteLength":1788,
			"byteOffset":71244,
			"target":34962
		},
		{
			"buffer":0,
			"byteLength":1788,
			"byteOffset":73032,
			"target":34962
		},
		{
			"buffer":0,
			"byteLength":1192,
			"byteOffset":74820,
			"target":34962
		}
	],
	"samplers":[
		{
			"magFilter":9729,
			"minFilter":9987
		}
	],
	"buffers":[
		{
			"byteLength":76012,
			"uri":"beanboi1.bin"
		}
	]
}
